<svg version="1.2" xmlns="http://www.w3.org/2000/svg" viewBox="0 0 128 144" width="128" height="144">
	<style>
		.s0 { fill: #ffffff } 
	</style>
	<path class="s0" d="m36.37 81.49c0 18.19-7.3 33.39-19.25 47.36h27.79v13.55h-42.67v-12.85c13.07-14.83 18.13-26.94 18.13-48.06z"/>
	<path class="s0" d="m91.63 81.49c0 18.19 7.3 33.39 19.25 47.36h-27.79v13.55h42.67v-12.85c-13.07-14.83-18.13-26.94-18.13-48.06z"/>
	<path class="s0" d="m36.37 61.17c0-18.24-7.3-33.38-19.25-47.36h27.79v-13.6h-42.67v12.91c13.07 14.83 18.13 26.93 18.13 48.05z"/>
	<path class="s0" d="m91.63 61.17c0-18.24 7.3-33.38 19.25-47.36h-27.79v-13.6h42.67v12.91c-13.07 14.83-18.13 26.93-18.13 48.05z"/>
</svg>