<svg version="1.2" xmlns="http://www.w3.org/2000/svg" viewBox="0 0 24 27" width="24" height="27">
	<style>
		.s0 { fill: #ffffff } 
	</style>
	<path class="s0" d="m6.82 15.28c0 3.41-1.37 6.26-3.61 8.88h5.21v2.54h-8v-2.41c2.45-2.78 3.4-5.05 3.4-9.01z"/>
	<path class="s0" d="m17.18 15.28c0 3.41 1.37 6.26 3.61 8.88h-5.21v2.54h8v-2.41c-2.45-2.78-3.4-5.05-3.4-9.01z"/>
	<path class="s0" d="m6.82 11.47c0-3.42-1.37-6.26-3.61-8.88h5.21v-2.55h-8v2.42c2.45 2.78 3.4 5.05 3.4 9.01z"/>
	<path class="s0" d="m17.18 11.47c0-3.42 1.37-6.26 3.61-8.88h-5.21v-2.55h8v2.42c-2.45 2.78-3.4 5.05-3.4 9.01z"/>
</svg>